HIERARCHY
ROOT Hips
{
	OFFSET 0.000000 0.000000 0.000000
	CHANNELS 6 Xposition Yposition Zposition Xrotation Yrotation Zrotation
	JOINT LeftUpLeg_virtual
	{
		OFFSET 0.000000 0.000000 0.000000
		CHANNELS 3 Xrotation Yrotation Zrotation
		JOINT LeftUpLeg
		{
			OFFSET 13.026900 -6.336304 -1.092800
			CHANNELS 3 Xrotation Yrotation Zrotation
			JOINT LeftLeg
			{
				OFFSET 0.524474 -46.096886 9.782700
				CHANNELS 3 Xrotation Yrotation Zrotation
				JOINT LeftFoot
				{
					OFFSET -0.524474 -53.427422 -12.948200
					CHANNELS 3 Xrotation Yrotation Zrotation
					JOINT LeftToeBase
					{
						OFFSET 0.192200 -14.009700 16.364100
						CHANNELS 3 Xrotation Yrotation Zrotation
						JOINT LeftToe_End
						{
							OFFSET -1.784700 -0.561700 9.474800
							CHANNELS 3 Xrotation Yrotation Zrotation
							End Site
							{
								OFFSET 0 0 0
							}
						}
					}
				}
			}
		}
	}
	JOINT RightUpLeg_virtual
	{
		OFFSET 0.000000 0.000000 0.000000
		CHANNELS 3 Xrotation Yrotation Zrotation
		JOINT RightUpLeg
		{
			OFFSET -12.883000 -6.336304 -1.092800
			CHANNELS 3 Xrotation Yrotation Zrotation
			JOINT RightLeg
			{
				OFFSET -0.524587 -46.096825 9.782800
				CHANNELS 3 Xrotation Yrotation Zrotation
				JOINT RightFoot
				{
					OFFSET 0.524587 -53.427383 -12.948300
					CHANNELS 3 Xrotation Yrotation Zrotation
					JOINT RightToeBase
					{
						OFFSET -0.192200 -14.009700 16.364100
						CHANNELS 3 Xrotation Yrotation Zrotation
						JOINT RightToe_End
						{
							OFFSET 1.784700 -0.561700 9.474800
							CHANNELS 3 Xrotation Yrotation Zrotation
							End Site
							{
								OFFSET 0 0 0
							}
						}
					}
				}
			}
		}
	}
	JOINT Spine_virtual
	{
		OFFSET 0.000000 0.000000 0.000000
		CHANNELS 3 Xrotation Yrotation Zrotation
		JOINT Spine
		{
			OFFSET 0.072000 7.257294 -0.789700
			CHANNELS 3 Xrotation Yrotation Zrotation
			JOINT Spine1
			{
				OFFSET 0.000000 12.508769 -0.658067
				CHANNELS 3 Xrotation Yrotation Zrotation
				JOINT Spine1_split
				{
					OFFSET 0.000000 12.508769 -0.658067
					CHANNELS 3 Xrotation Yrotation Zrotation
					JOINT Spine2
					{
						OFFSET 0.000000 12.508769 -0.658067
						CHANNELS 3 Xrotation Yrotation Zrotation
						JOINT Neck_virtual
						{
							OFFSET 0.000000 0.000000 0.000000
							CHANNELS 3 Xrotation Yrotation Zrotation
							JOINT Neck
							{
								OFFSET 0.000000 14.033295 7.520400
								CHANNELS 3 Xrotation Yrotation Zrotation
								JOINT Head
								{
									OFFSET 0.000000 8.198502 5.703100
									CHANNELS 3 Xrotation Yrotation Zrotation
									JOINT HeadTop_End
									{
										OFFSET 0.000000 17.760803 13.332701
										CHANNELS 3 Xrotation Yrotation Zrotation
										End Site
										{
											OFFSET 0 0 0
										}
									}
								}
							}
						}
						JOINT LeftShoulder_virtual
						{
							OFFSET 0.000000 0.000000 0.000000
							CHANNELS 3 Xrotation Yrotation Zrotation
							JOINT LeftShoulder
							{
								OFFSET 6.292450 5.785301 -0.669000
								CHANNELS 3 Xrotation Yrotation Zrotation
								JOINT LeftShoulder_split
								{
									OFFSET 6.292450 5.785301 -0.669000
									CHANNELS 3 Xrotation Yrotation Zrotation
									JOINT LeftArm
									{
										OFFSET 13.907140 -6.093903 1.965100
										CHANNELS 3 Xrotation Yrotation Zrotation
										JOINT LeftForeArm
										{
											OFFSET 34.140198 0.000000 0.000000
											CHANNELS 3 Xrotation Yrotation Zrotation
											JOINT LeftHand
											{
												OFFSET 40.960209 0.000000 0.000000
												CHANNELS 3 Xrotation Yrotation Zrotation
												End Site
												{
													OFFSET 0 0 0
												}
											}
										}
									}
								}
							}
						}
						JOINT RightShoulder_virtual
						{
							OFFSET 0.000000 0.000000 0.000000
							CHANNELS 3 Xrotation Yrotation Zrotation
							JOINT RightShoulder
							{
								OFFSET -6.292450 5.785301 -0.669000
								CHANNELS 3 Xrotation Yrotation Zrotation
								JOINT RightShoulder_split
								{
									OFFSET -6.292450 5.785301 -0.669000
									CHANNELS 3 Xrotation Yrotation Zrotation
									JOINT RightArm
									{
										OFFSET -13.907140 -6.093903 1.965100
										CHANNELS 3 Xrotation Yrotation Zrotation
										JOINT RightForeArm
										{
											OFFSET -34.140198 0.000000 0.000000
											CHANNELS 3 Xrotation Yrotation Zrotation
											JOINT RightHand
											{
												OFFSET -40.960209 0.000000 0.000000
												CHANNELS 3 Xrotation Yrotation Zrotation
												End Site
												{
													OFFSET 0 0 0
												}
											}
										}
									}
								}
							}
						}
					}
				}
			}
		}
	}
}
MOTION
Frames: 8
Frame Time: 0.03333333
-6.881027 93.655975 -2.611996 0.000000 0.000000 0.000000 -2.318228 -14.708958 4.117256 -55.272100 15.083534 35.188971 51.760632 -20.076154 -1.101609 7.889632 -9.964297 -19.981539 0.222221 -4.831062 1.941053 0.000000 0.000000 0.000000 -3.704302 -10.216380 4.836054 -20.105662 4.223206 -18.855699 50.977923 3.343925 -2.148161 -26.079785 -14.891373 36.332184 3.104955 1.816642 -10.853031 0.000000 0.000000 0.000000 -3.487368 -1.585593 4.408366 5.211867 7.780724 0.016622 7.575440 6.653361 -2.048179 0.260489 -1.505703 0.220830 0.000000 0.000000 0.000000 10.388982 5.900960 1.108909 -5.300406 18.041671 11.835855 7.840228 39.086451 -23.922039 0.000000 0.000000 0.000000 1.736723 3.762825 -1.436726 0.516507 -14.250153 3.859584 -1.193112 1.810797 -4.033141 -24.318117 22.978303 -53.301717 1.067591 -53.890179 8.063475 0.000000 0.000000 0.000000 1.698786 2.332255 1.482192 -1.659733 -7.284006 -1.675207 -15.185399 15.005126 -3.297649 9.359017 -13.097756 45.657035 -34.015886 32.837640 19.535294 0.000000 0.000000 0.000000 
-7.395251 93.639832 -2.592033 0.000000 0.000000 0.000000 -2.478777 -16.415858 4.526751 -53.773721 13.883506 34.973646 53.961459 -19.622946 -0.544207 4.875941 -8.388731 -21.296859 1.824515 -4.843159 1.925999 0.000000 0.000000 0.000000 -3.291446 -12.517147 4.804428 -20.315826 4.268674 -18.900353 51.201123 3.305775 -2.233601 -26.882761 -15.399493 35.768994 7.434424 1.552760 -11.077910 0.000000 0.000000 0.000000 -2.572781 -3.481597 4.626369 5.345785 7.413696 -0.197412 7.522108 6.813181 -2.128586 0.158309 -1.415326 0.205031 0.000000 0.000000 0.000000 9.751814 5.867093 1.044773 -5.535429 18.157242 12.558742 7.957673 39.525458 -23.441703 0.000000 0.000000 0.000000 1.878035 3.845043 -1.649120 0.406541 -13.459721 3.885227 -1.538066 1.141670 -3.189991 -23.152386 23.263083 -53.256764 0.704287 -55.353677 7.741615 0.000000 0.000000 0.000000 1.952077 2.603849 1.344127 -1.532035 -5.419404 -1.106856 -15.944996 15.081427 -3.996961 8.838697 -13.212147 47.177978 -34.413338 33.538585 19.925585 0.000000 0.000000 0.000000 
-7.752255 93.448593 -2.533348 0.000000 0.000000 0.000000 -2.066903 -20.255247 5.012449 -50.824093 12.560122 34.520937 56.101371 -17.621383 -0.578697 0.813918 -4.325338 -19.761863 4.953660 -4.742177 1.704210 0.000000 0.000000 0.000000 -2.476537 -16.246911 4.793187 -21.787042 5.533209 -19.110103 51.992233 3.480426 -2.512824 -26.536969 -16.178570 35.867816 10.510413 1.335816 -11.807213 0.000000 0.000000 0.000000 -1.669012 -6.605509 4.695719 5.567995 7.199465 -0.623085 7.684896 6.864968 -2.287542 0.044174 -1.339568 0.110906 0.000000 0.000000 0.000000 9.522254 5.839717 0.673141 -6.084982 17.964656 13.130906 6.930555 40.198662 -21.291732 0.000000 0.000000 0.000000 2.280964 3.812702 -1.976826 0.113501 -12.208845 4.584405 -1.597542 -1.089467 -3.253271 -20.586965 23.972207 -52.278483 -0.025649 -58.485394 6.410922 0.000000 0.000000 0.000000 2.307506 2.740165 1.061586 -1.421550 -3.051980 -0.011763 -16.795157 14.017264 -4.708911 8.028139 -11.991928 48.412603 -33.759194 34.113769 19.442186 0.000000 0.000000 0.000000 
-8.029172 92.905685 -2.560017 0.000000 0.000000 0.000000 -1.372954 -25.696626 5.312252 -47.642349 10.509931 33.393341 59.075925 -15.664436 -0.547828 -2.099059 -0.234701 -16.293596 6.742954 -4.656863 1.357192 0.000000 0.000000 0.000000 -1.808981 -20.423505 4.849792 -24.319143 7.951452 -19.288454 53.808517 3.507866 -2.736269 -24.600171 -17.181937 36.365809 10.865922 1.244275 -12.707633 0.000000 0.000000 0.000000 -0.951190 -11.031268 4.558915 5.829251 7.171599 -1.261770 8.117164 6.804600 -2.411607 -0.044801 -1.250040 0.030094 0.000000 0.000000 0.000000 9.729382 5.841851 0.158328 -7.020095 17.441815 13.403375 5.014173 41.067195 -18.013405 0.000000 0.000000 0.000000 2.955652 3.691488 -2.249504 -0.409828 -10.739829 5.728612 -0.954313 -3.627738 -4.166463 -16.972942 25.040515 -50.506828 -1.100876 -62.767506 4.155079 0.000000 0.000000 0.000000 2.843811 2.806365 0.789995 -1.279230 -0.219896 1.474335 -17.714884 11.919661 -4.778746 6.474108 -9.551085 48.909195 -31.896516 33.948055 17.884147 0.000000 0.000000 0.000000 
-8.074134 92.153847 -2.525723 0.000000 0.000000 0.000000 -0.499451 -31.438582 5.289328 -44.934653 8.226812 31.190260 63.279667 -13.817304 -0.524764 -3.716269 2.198972 -10.482811 5.273928 -4.722488 0.704018 0.000000 0.000000 0.000000 -1.506718 -25.101546 4.778327 -27.519032 11.164431 -19.128495 55.954337 3.354522 -2.798052 -21.215326 -17.851236 37.166522 8.655151 1.344982 -13.475822 0.000000 0.000000 0.000000 -0.557277 -16.407885 4.255717 5.937563 7.421511 -1.965256 8.899318 6.679539 -2.371892 -0.025993 -1.145650 0.012888 0.000000 0.000000 0.000000 10.371907 5.888396 -0.301144 -8.218709 16.991783 13.252747 3.120014 42.343338 -14.709784 0.000000 0.000000 0.000000 3.881163 3.554333 -2.283260 -1.121060 -9.531681 6.931938 0.410299 -4.439909 -4.759162 -12.452859 26.182863 -48.603428 -2.393597 -67.240658 1.228940 0.000000 0.000000 0.000000 3.576229 2.878584 0.695729 -1.032214 2.867977 3.041138 -17.327947 9.472018 -4.612787 3.627333 -5.794991 48.209948 -28.859953 32.134916 15.187878 0.000000 0.000000 0.000000 
-7.826162 91.470131 -2.392258 0.000000 0.000000 0.000000 0.033770 -37.095037 4.785170 -44.777200 5.189821 27.765028 70.083253 -12.791739 0.224747 -2.206728 1.810340 -4.816030 2.062753 -4.696363 -0.840365 0.000000 0.000000 0.000000 -1.591600 -30.512525 4.384159 -30.917927 14.700017 -18.285385 57.269138 3.310055 -2.697070 -17.478012 -17.227984 37.569899 5.755936 1.607144 -13.811115 0.000000 0.000000 0.000000 -0.129656 -22.392818 3.819636 5.671859 8.009750 -2.449890 10.051849 6.544527 -2.073579 0.053376 -1.013514 0.095783 0.000000 0.000000 0.000000 11.375161 5.984026 -0.520133 -9.629272 16.876491 12.672835 2.410397 44.070829 -12.707505 0.000000 0.000000 0.000000 4.989365 3.406844 -1.965117 -1.905758 -8.905029 7.808952 1.662337 -3.160885 -5.092560 -6.731621 26.877329 -47.502828 -3.382434 -71.003921 -1.577819 0.000000 0.000000 0.000000 4.445776 2.958885 0.885785 -0.724623 6.332114 4.521750 -16.093618 7.023341 -4.365289 -0.714216 -0.315424 46.178888 -24.980382 27.733621 11.574830 0.000000 0.000000 0.000000 
-7.341364 91.178696 -1.733028 0.000000 0.000000 0.000000 0.291509 -42.834538 3.869924 -47.561496 1.092740 22.723348 78.652196 -12.940343 2.345392 3.037074 -1.205892 -1.442363 0.056062 -4.434175 -3.637705 0.000000 0.000000 0.000000 -1.258582 -36.393939 3.736615 -33.577531 17.712868 -16.636150 56.426368 3.457264 -2.541564 -14.309270 -14.647576 36.379937 4.781536 1.919545 -13.522900 0.000000 0.000000 0.000000 0.998831 -29.520535 3.684939 4.868014 9.016691 -2.517098 11.389019 6.394086 -1.537282 0.128088 -0.952026 0.283631 0.000000 0.000000 0.000000 12.608297 6.076214 -0.438141 -11.034397 17.364118 11.791178 4.002038 46.011129 -13.060549 0.000000 0.000000 0.000000 6.198165 3.235915 -1.326812 -2.671722 -9.001560 8.012532 2.260536 -0.629843 -4.667204 0.441799 26.319413 -48.233659 -2.860676 -73.459586 -2.786220 0.000000 0.000000 0.000000 5.411635 2.947747 1.368369 -0.439549 10.320639 5.710188 -15.317273 4.777404 -3.656459 -5.430941 7.241977 43.262210 -21.035419 21.050057 7.590833 0.000000 0.000000 0.000000 
-6.765933 91.390572 -0.646801 0.000000 0.000000 0.000000 1.473368 -48.278386 3.342164 -52.005033 -2.664367 16.021199 86.080956 -13.289764 5.240527 8.617249 -5.728484 0.252096 0.469198 -4.143220 -6.657948 0.000000 0.000000 0.000000 0.184565 -42.834442 3.333362 -35.353264 19.491442 -14.399856 52.296467 3.980114 -2.343691 -11.523504 -9.677513 33.586332 6.211205 2.380918 -12.773902 0.000000 0.000000 0.000000 3.167398 -37.583403 4.175714 3.483319 10.473425 -1.863761 12.649882 6.207539 -0.851322 0.233189 -0.984511 0.398366 0.000000 0.000000 0.000000 13.788946 6.179281 -0.066501 -12.364935 18.669549 10.856902 8.715653 47.795526 -16.297011 0.000000 0.000000 0.000000 7.439472 3.022237 -0.515819 -3.321984 -9.757855 7.540871 2.427456 2.520002 -3.998542 9.078688 23.736700 -51.234540 0.161185 -74.404106 -1.136311 0.000000 0.000000 0.000000 6.380868 2.806658 2.011329 -0.216791 14.757701 6.558059 -15.571952 3.126373 -2.843707 -8.843673 16.916468 39.775907 -17.804722 13.794871 3.914307 0.000000 0.000000 0.000000 
